<?xml version="1.0" encoding="utf-8" standalone="no"?>
<!DOCTYPE svg PUBLIC "-//W3C//DTD SVG 1.1//EN"
  "http://www.w3.org/Graphics/SVG/1.1/DTD/svg11.dtd">
<!-- Created with matplotlib (https://matplotlib.org/) -->
<svg height="648pt" version="1.1" viewBox="0 0 1152 648" width="1152pt" xmlns="http://www.w3.org/2000/svg" xmlns:xlink="http://www.w3.org/1999/xlink">
 <defs>
  <style type="text/css">
*{stroke-linecap:butt;stroke-linejoin:round;}
  </style>
 </defs>
 <g id="figure_1">
  <g id="patch_1">
   <path d="M 0 648 
L 1152 648 
L 1152 0 
L 0 0 
z
" style="fill:#ffffff;"/>
  </g>
  <g id="axes_1">
   <g id="patch_2">
    <path d="M 144 576.72 
L 1036.8 576.72 
L 1036.8 77.76 
L 144 77.76 
z
" style="fill:#ffffff;"/>
   </g>
   <g id="PathCollection_1">
    <defs>
     <path d="M 0 2.236068 
C 0.593012 2.236068 1.161816 2.000462 1.581139 1.581139 
C 2.000462 1.161816 2.236068 0.593012 2.236068 0 
C 2.236068 -0.593012 2.000462 -1.161816 1.581139 -1.581139 
C 1.161816 -2.000462 0.593012 -2.236068 0 -2.236068 
C -0.593012 -2.236068 -1.161816 -2.000462 -1.581139 -1.581139 
C -2.000462 -1.161816 -2.236068 -0.593012 -2.236068 0 
C -2.236068 0.593012 -2.000462 1.161816 -1.581139 1.581139 
C -1.161816 2.000462 -0.593012 2.236068 0 2.236068 
z
" id="ma9dd31e9ac" style="stroke:#000000;"/>
    </defs>
    <g clip-path="url(#pf28105ed5e)">
     <use style="fill:#ffffff;stroke:#000000;" x="347.794499" xlink:href="#ma9dd31e9ac" y="489.140048"/>
    </g>
   </g>
   <g id="PathCollection_2">
    <g clip-path="url(#pf28105ed5e)">
     <use style="fill:#ffffff;stroke:#000000;" x="363.955089" xlink:href="#ma9dd31e9ac" y="489.140048"/>
    </g>
   </g>
   <g id="PathCollection_3">
    <defs>
     <path d="M 0 3.872983 
C 1.027127 3.872983 2.012324 3.464901 2.738613 2.738613 
C 3.464901 2.012324 3.872983 1.027127 3.872983 0 
C 3.872983 -1.027127 3.464901 -2.012324 2.738613 -2.738613 
C 2.012324 -3.464901 1.027127 -3.872983 0 -3.872983 
C -1.027127 -3.872983 -2.012324 -3.464901 -2.738613 -2.738613 
C -3.464901 -2.012324 -3.872983 -1.027127 -3.872983 0 
C -3.872983 1.027127 -3.464901 2.012324 -2.738613 2.738613 
C -2.012324 3.464901 -1.027127 3.872983 0 3.872983 
z
" id="m2a63ece774" style="stroke:#000000;"/>
    </defs>
    <g clip-path="url(#pf28105ed5e)">
     <use style="fill:#ffffff;stroke:#000000;" x="493.239808" xlink:href="#m2a63ece774" y="535.431135"/>
    </g>
   </g>
   <g id="PathCollection_4">
    <g clip-path="url(#pf28105ed5e)">
     <use style="fill:#ffffff;stroke:#000000;" x="509.400398" xlink:href="#m2a63ece774" y="544.1458"/>
    </g>
   </g>
   <g id="PathCollection_5">
    <g clip-path="url(#pf28105ed5e)">
     <use style="fill:#ffffff;stroke:#000000;" x="477.079218" xlink:href="#ma9dd31e9ac" y="512.489213"/>
    </g>
   </g>
   <g id="PathCollection_6">
    <defs>
     <path d="M 0 3.535534 
C 0.937635 3.535534 1.836992 3.163008 2.5 2.5 
C 3.163008 1.836992 3.535534 0.937635 3.535534 0 
C 3.535534 -0.937635 3.163008 -1.836992 2.5 -2.5 
C 1.836992 -3.163008 0.937635 -3.535534 0 -3.535534 
C -0.937635 -3.535534 -1.836992 -3.163008 -2.5 -2.5 
C -3.163008 -1.836992 -3.535534 -0.937635 -3.535534 0 
C -3.535534 0.937635 -3.163008 1.836992 -2.5 2.5 
C -1.836992 3.163008 -0.937635 3.535534 0 3.535534 
z
" id="m075f53e736" style="stroke:#000000;"/>
    </defs>
    <g clip-path="url(#pf28105ed5e)">
     <use style="fill:#ffffff;stroke:#000000;" x="460.918628" xlink:href="#m075f53e736" y="512.389862"/>
    </g>
   </g>
   <g id="PathCollection_7">
    <defs>
     <path d="M 0 5 
C 1.326016 5 2.597899 4.473168 3.535534 3.535534 
C 4.473168 2.597899 5 1.326016 5 0 
C 5 -1.326016 4.473168 -2.597899 3.535534 -3.535534 
C 2.597899 -4.473168 1.326016 -5 0 -5 
C -1.326016 -5 -2.597899 -4.473168 -3.535534 -3.535534 
C -4.473168 -2.597899 -5 -1.326016 -5 0 
C -5 1.326016 -4.473168 2.597899 -3.535534 3.535534 
C -2.597899 4.473168 -1.326016 5 0 5 
z
" id="m68bfe4651d" style="stroke:#000000;"/>
    </defs>
    <g clip-path="url(#pf28105ed5e)">
     <use style="fill:#ffffff;stroke:#000000;" x="590.203347" xlink:href="#m68bfe4651d" y="546.319287"/>
    </g>
   </g>
   <g id="PathCollection_8">
    <g clip-path="url(#pf28105ed5e)">
     <use style="fill:#ffffff;stroke:#000000;" x="606.363937" xlink:href="#m68bfe4651d" y="545.149391"/>
    </g>
   </g>
   <g id="PathCollection_9">
    <g clip-path="url(#pf28105ed5e)">
     <use style="fill:#ffffff;stroke:#000000;" x="622.524527" xlink:href="#m2a63ece774" y="542.552685"/>
    </g>
   </g>
   <g id="PathCollection_10">
    <g clip-path="url(#pf28105ed5e)">
     <use style="fill:#ffffff;stroke:#000000;" x="638.685117" xlink:href="#m2a63ece774" y="545.149391"/>
    </g>
   </g>
   <g id="PathCollection_11">
    <g clip-path="url(#pf28105ed5e)">
     <use style="fill:#ffffff;stroke:#000000;" x="574.042757" xlink:href="#m075f53e736" y="549.874776"/>
    </g>
   </g>
   <g id="PathCollection_12">
    <defs>
     <path d="M 0 4.472136 
C 1.186024 4.472136 2.323632 4.000923 3.162278 3.162278 
C 4.000923 2.323632 4.472136 1.186024 4.472136 0 
C 4.472136 -1.186024 4.000923 -2.323632 3.162278 -3.162278 
C 2.323632 -4.000923 1.186024 -4.472136 0 -4.472136 
C -1.186024 -4.472136 -2.323632 -4.000923 -3.162278 -3.162278 
C -4.000923 -2.323632 -4.472136 -1.186024 -4.472136 0 
C -4.472136 1.186024 -4.000923 2.323632 -3.162278 3.162278 
C -2.323632 4.000923 -1.186024 4.472136 0 4.472136 
z
" id="mea07f39d50" style="stroke:#000000;"/>
    </defs>
    <g clip-path="url(#pf28105ed5e)">
     <use style="fill:#ffffff;stroke:#000000;" x="557.882167" xlink:href="#mea07f39d50" y="543.999961"/>
    </g>
   </g>
   <g id="PathCollection_13">
    <defs>
     <path d="M 0 2.738613 
C 0.726289 2.738613 1.422928 2.450055 1.936492 1.936492 
C 2.450055 1.422928 2.738613 0.726289 2.738613 0 
C 2.738613 -0.726289 2.450055 -1.422928 1.936492 -1.936492 
C 1.422928 -2.450055 0.726289 -2.738613 0 -2.738613 
C -0.726289 -2.738613 -1.422928 -2.450055 -1.936492 -1.936492 
C -2.450055 -1.422928 -2.738613 -0.726289 -2.738613 0 
C -2.738613 0.726289 -2.450055 1.422928 -1.936492 1.936492 
C -1.422928 2.450055 -0.726289 2.738613 0 2.738613 
z
" id="ma61e2dff35" style="stroke:#000000;"/>
    </defs>
    <g clip-path="url(#pf28105ed5e)">
     <use style="fill:#ffffff;stroke:#000000;" x="541.721577" xlink:href="#ma61e2dff35" y="514.590554"/>
    </g>
   </g>
   <g id="PathCollection_14">
    <defs>
     <path d="M 0 6.324555 
C 1.677292 6.324555 3.286112 5.65816 4.472136 4.472136 
C 5.65816 3.286112 6.324555 1.677292 6.324555 0 
C 6.324555 -1.677292 5.65816 -3.286112 4.472136 -4.472136 
C 3.286112 -5.65816 1.677292 -6.324555 0 -6.324555 
C -1.677292 -6.324555 -3.286112 -5.65816 -4.472136 -4.472136 
C -5.65816 -3.286112 -6.324555 -1.677292 -6.324555 0 
C -6.324555 1.677292 -5.65816 3.286112 -4.472136 4.472136 
C -3.286112 5.65816 -1.677292 6.324555 0 6.324555 
z
" id="ma4dba077af" style="stroke:#000000;"/>
    </defs>
    <g clip-path="url(#pf28105ed5e)">
     <use style="fill:#ffffff;stroke:#000000;" x="525.560988" xlink:href="#ma4dba077af" y="505.538987"/>
    </g>
   </g>
   <g id="PathCollection_15">
    <defs>
     <path d="M 0 7.905694 
C 2.096615 7.905694 4.10764 7.0727 5.59017 5.59017 
C 7.0727 4.10764 7.905694 2.096615 7.905694 0 
C 7.905694 -2.096615 7.0727 -4.10764 5.59017 -5.59017 
C 4.10764 -7.0727 2.096615 -7.905694 0 -7.905694 
C -2.096615 -7.905694 -4.10764 -7.0727 -5.59017 -5.59017 
C -7.0727 -4.10764 -7.905694 -2.096615 -7.905694 0 
C -7.905694 2.096615 -7.0727 4.10764 -5.59017 5.59017 
C -4.10764 7.0727 -2.096615 7.905694 0 7.905694 
z
" id="me8387516ab" style="stroke:#000000;"/>
    </defs>
    <g clip-path="url(#pf28105ed5e)">
     <use style="fill:#ffffff;stroke:#000000;" x="654.845707" xlink:href="#me8387516ab" y="437.007807"/>
    </g>
   </g>
   <g id="PathCollection_16">
    <g clip-path="url(#pf28105ed5e)">
     <use style="fill:#ffffff;stroke:#000000;" x="671.006297" xlink:href="#me8387516ab" y="447.902524"/>
    </g>
   </g>
   <g id="PathCollection_17">
    <g clip-path="url(#pf28105ed5e)">
     <use style="fill:#ffffff;stroke:#000000;" x="784.130426" xlink:href="#ma61e2dff35" y="527.634166"/>
    </g>
   </g>
   <g id="PathCollection_18">
    <g clip-path="url(#pf28105ed5e)">
     <use style="fill:#ffffff;stroke:#000000;" x="800.291016" xlink:href="#ma61e2dff35" y="522.510386"/>
    </g>
   </g>
   <g id="PathCollection_19">
    <defs>
     <path d="M 0 3.162278 
C 0.838646 3.162278 1.643056 2.82908 2.236068 2.236068 
C 2.82908 1.643056 3.162278 0.838646 3.162278 0 
C 3.162278 -0.838646 2.82908 -1.643056 2.236068 -2.236068 
C 1.643056 -2.82908 0.838646 -3.162278 0 -3.162278 
C -0.838646 -3.162278 -1.643056 -2.82908 -2.236068 -2.236068 
C -2.82908 -1.643056 -3.162278 -0.838646 -3.162278 0 
C -3.162278 0.838646 -2.82908 1.643056 -2.236068 2.236068 
C -1.643056 2.82908 -0.838646 3.162278 0 3.162278 
z
" id="mb9471c09e2" style="stroke:#000000;"/>
    </defs>
    <g clip-path="url(#pf28105ed5e)">
     <use style="fill:#ffffff;stroke:#000000;" x="767.969836" xlink:href="#mb9471c09e2" y="490.302503"/>
    </g>
   </g>
   <g id="PathCollection_20">
    <g clip-path="url(#pf28105ed5e)">
     <use style="fill:#ffffff;stroke:#000000;" x="751.809246" xlink:href="#ma9dd31e9ac" y="513.233994"/>
    </g>
   </g>
   <g id="PathCollection_21">
    <g clip-path="url(#pf28105ed5e)">
     <use style="fill:#ffffff;stroke:#000000;" x="735.648656" xlink:href="#ma9dd31e9ac" y="474.583255"/>
    </g>
   </g>
   <g id="PathCollection_22">
    <g clip-path="url(#pf28105ed5e)">
     <use style="fill:#ffffff;stroke:#000000;" x="719.488066" xlink:href="#ma9dd31e9ac" y="483.513094"/>
    </g>
   </g>
   <g id="PathCollection_23">
    <defs>
     <path d="M 0 1.581139 
C 0.419323 1.581139 0.821528 1.41454 1.118034 1.118034 
C 1.41454 0.821528 1.581139 0.419323 1.581139 0 
C 1.581139 -0.419323 1.41454 -0.821528 1.118034 -1.118034 
C 0.821528 -1.41454 0.419323 -1.581139 0 -1.581139 
C -0.419323 -1.581139 -0.821528 -1.41454 -1.118034 -1.118034 
C -1.41454 -0.821528 -1.581139 -0.419323 -1.581139 0 
C -1.581139 0.419323 -1.41454 0.821528 -1.118034 1.118034 
C -0.821528 1.41454 -0.419323 1.581139 0 1.581139 
z
" id="m837807d4bb" style="stroke:#000000;"/>
    </defs>
    <g clip-path="url(#pf28105ed5e)">
     <use style="fill:#ffffff;stroke:#000000;" x="703.327476" xlink:href="#m837807d4bb" y="528.931988"/>
    </g>
   </g>
   <g id="PathCollection_24">
    <g clip-path="url(#pf28105ed5e)">
     <use style="fill:#ffffff;stroke:#000000;" x="687.166886" xlink:href="#ma4dba077af" y="545.906483"/>
    </g>
   </g>
   <g id="PathCollection_25">
    <g clip-path="url(#pf28105ed5e)">
     <use style="fill:#ffffff;stroke:#000000;" x="913.415145" xlink:href="#mea07f39d50" y="552.755361"/>
    </g>
   </g>
   <g id="PathCollection_26">
    <g clip-path="url(#pf28105ed5e)">
     <use style="fill:#ffffff;stroke:#000000;" x="929.575735" xlink:href="#mea07f39d50" y="542.587977"/>
    </g>
   </g>
   <g id="PathCollection_27">
    <defs>
     <path d="M 0 7.245688 
C 1.921579 7.245688 3.764714 6.482237 5.123475 5.123475 
C 6.482237 3.764714 7.245688 1.921579 7.245688 0 
C 7.245688 -1.921579 6.482237 -3.764714 5.123475 -5.123475 
C 3.764714 -6.482237 1.921579 -7.245688 0 -7.245688 
C -1.921579 -7.245688 -3.764714 -6.482237 -5.123475 -5.123475 
C -6.482237 -3.764714 -7.245688 -1.921579 -7.245688 0 
C -7.245688 1.921579 -6.482237 3.764714 -5.123475 5.123475 
C -3.764714 6.482237 -1.921579 7.245688 0 7.245688 
z
" id="me02ca7adf7" style="stroke:#000000;"/>
    </defs>
    <g clip-path="url(#pf28105ed5e)">
     <use style="fill:#ffffff;stroke:#000000;" x="945.736325" xlink:href="#me02ca7adf7" y="546.715185"/>
    </g>
   </g>
   <g id="PathCollection_28">
    <g clip-path="url(#pf28105ed5e)">
     <use style="fill:#ffffff;stroke:#000000;" x="961.896915" xlink:href="#me02ca7adf7" y="537.145203"/>
    </g>
   </g>
   <g id="PathCollection_29">
    <g clip-path="url(#pf28105ed5e)">
     <use style="fill:#ffffff;stroke:#000000;" x="897.254555" xlink:href="#m2a63ece774" y="545.521075"/>
    </g>
   </g>
   <g id="PathCollection_30">
    <g clip-path="url(#pf28105ed5e)">
     <use style="fill:#ffffff;stroke:#000000;" x="881.093965" xlink:href="#m075f53e736" y="485.3964"/>
    </g>
   </g>
   <g id="PathCollection_31">
    <defs>
     <path d="M 0 4.743416 
C 1.257969 4.743416 2.464584 4.24362 3.354102 3.354102 
C 4.24362 2.464584 4.743416 1.257969 4.743416 0 
C 4.743416 -1.257969 4.24362 -2.464584 3.354102 -3.354102 
C 2.464584 -4.24362 1.257969 -4.743416 0 -4.743416 
C -1.257969 -4.743416 -2.464584 -4.24362 -3.354102 -3.354102 
C -4.24362 -2.464584 -4.743416 -1.257969 -4.743416 0 
C -4.743416 1.257969 -4.24362 2.464584 -3.354102 3.354102 
C -2.464584 4.24362 -1.257969 4.743416 0 4.743416 
z
" id="m023257beec" style="stroke:#000000;"/>
    </defs>
    <g clip-path="url(#pf28105ed5e)">
     <use style="fill:#ffffff;stroke:#000000;" x="864.933375" xlink:href="#m023257beec" y="532.707652"/>
    </g>
   </g>
   <g id="PathCollection_32">
    <defs>
     <path d="M 0 5.477226 
C 1.452577 5.477226 2.845856 4.900111 3.872983 3.872983 
C 4.900111 2.845856 5.477226 1.452577 5.477226 0 
C 5.477226 -1.452577 4.900111 -2.845856 3.872983 -3.872983 
C 2.845856 -4.900111 1.452577 -5.477226 0 -5.477226 
C -1.452577 -5.477226 -2.845856 -4.900111 -3.872983 -3.872983 
C -4.900111 -2.845856 -5.477226 -1.452577 -5.477226 0 
C -5.477226 1.452577 -4.900111 2.845856 -3.872983 3.872983 
C -2.845856 4.900111 -1.452577 5.477226 0 5.477226 
z
" id="me9f82fe88c" style="stroke:#000000;"/>
    </defs>
    <g clip-path="url(#pf28105ed5e)">
     <use style="fill:#ffffff;stroke:#000000;" x="848.772785" xlink:href="#me9f82fe88c" y="519.586919"/>
    </g>
   </g>
   <g id="PathCollection_33">
    <g clip-path="url(#pf28105ed5e)">
     <use style="fill:#ffffff;stroke:#000000;" x="832.612195" xlink:href="#ma9dd31e9ac" y="532.801035"/>
    </g>
   </g>
   <g id="PathCollection_34">
    <g clip-path="url(#pf28105ed5e)">
     <use style="fill:#ffffff;stroke:#000000;" x="816.451606" xlink:href="#ma61e2dff35" y="457.941408"/>
    </g>
   </g>
   <g id="PathCollection_35">
    <g clip-path="url(#pf28105ed5e)">
     <use style="fill:#ffffff;stroke:#000000;" x="444.758038" xlink:href="#mb9471c09e2" y="552.232226"/>
    </g>
   </g>
   <g id="PathCollection_36">
    <g clip-path="url(#pf28105ed5e)">
     <use style="fill:#ffffff;stroke:#000000;" x="428.597448" xlink:href="#mb9471c09e2" y="526.514271"/>
    </g>
   </g>
   <g id="PathCollection_37">
    <g clip-path="url(#pf28105ed5e)">
     <use style="fill:#ffffff;stroke:#000000;" x="412.436858" xlink:href="#mea07f39d50" y="549.100194"/>
    </g>
   </g>
   <g id="PathCollection_38">
    <g clip-path="url(#pf28105ed5e)">
     <use style="fill:#ffffff;stroke:#000000;" x="396.276268" xlink:href="#ma61e2dff35" y="482.926674"/>
    </g>
   </g>
   <g id="PathCollection_39">
    <g clip-path="url(#pf28105ed5e)">
     <use style="fill:#ffffff;stroke:#000000;" x="380.115679" xlink:href="#ma9dd31e9ac" y="460.745266"/>
    </g>
   </g>
   <g id="PathCollection_40">
    <g clip-path="url(#pf28105ed5e)">
     <use style="fill:#ffffff;stroke:#000000;" x="331.633909" xlink:href="#ma61e2dff35" y="474.01338"/>
    </g>
   </g>
   <g id="PathCollection_41">
    <g clip-path="url(#pf28105ed5e)">
     <use style="fill:#ffffff;stroke:#000000;" x="315.473319" xlink:href="#ma61e2dff35" y="473.552707"/>
    </g>
   </g>
   <g id="PathCollection_42">
    <g clip-path="url(#pf28105ed5e)">
     <use style="fill:#ffffff;stroke:#000000;" x="299.312729" xlink:href="#mb9471c09e2" y="534.3103"/>
    </g>
   </g>
   <g id="PathCollection_43">
    <g clip-path="url(#pf28105ed5e)">
     <use style="fill:#ffffff;stroke:#000000;" x="283.152139" xlink:href="#mb9471c09e2" y="525.082567"/>
    </g>
   </g>
   <g id="PathCollection_44">
    <g clip-path="url(#pf28105ed5e)">
     <use style="fill:#ffffff;stroke:#000000;" x="978.057504" xlink:href="#mb9471c09e2" y="503.863087"/>
    </g>
   </g>
   <g id="PathCollection_45">
    <g clip-path="url(#pf28105ed5e)">
     <use style="fill:#ffffff;stroke:#000000;" x="994.218094" xlink:href="#mb9471c09e2" y="483.513094"/>
    </g>
   </g>
   <g id="PathCollection_46">
    <g clip-path="url(#pf28105ed5e)">
     <use style="fill:#ffffff;stroke:#000000;" x="266.991549" xlink:href="#m075f53e736" y="448.014941"/>
    </g>
   </g>
   <g id="PathCollection_47">
    <g clip-path="url(#pf28105ed5e)">
     <use style="fill:#ffffff;stroke:#000000;" x="250.830959" xlink:href="#ma9dd31e9ac" y="544.665986"/>
    </g>
   </g>
   <g id="PathCollection_48">
    <g clip-path="url(#pf28105ed5e)">
     <use style="fill:#ffffff;stroke:#000000;" x="234.67037" xlink:href="#ma61e2dff35" y="536.584375"/>
    </g>
   </g>
   <g id="PathCollection_49">
    <g clip-path="url(#pf28105ed5e)">
     <use style="fill:#ffffff;stroke:#000000;" x="218.50978" xlink:href="#mb9471c09e2" y="551.939827"/>
    </g>
   </g>
   <g id="PathCollection_50">
    <g clip-path="url(#pf28105ed5e)">
     <use style="fill:#ffffff;stroke:#000000;" x="202.34919" xlink:href="#ma9dd31e9ac" y="505.897213"/>
    </g>
   </g>
   <g id="PathCollection_51">
    <g clip-path="url(#pf28105ed5e)">
     <use style="fill:#ffffff;stroke:#000000;" x="186.1886" xlink:href="#ma9dd31e9ac" y="482.928442"/>
    </g>
   </g>
   <g id="matplotlib.axis_1">
    <g id="ytick_1">
     <g id="line2d_1">
      <defs>
       <path d="M 0 0 
L -3.5 0 
" id="mecf347a60a" style="stroke:#000000;stroke-width:0.8;"/>
      </defs>
      <g>
       <use style="stroke:#000000;stroke-width:0.8;" x="144" xlink:href="#mecf347a60a" y="554.888931"/>
      </g>
     </g>
     <g id="text_1">
      <!-- 0 -->
      <defs>
       <path d="M 31.78125 66.40625 
Q 24.171875 66.40625 20.328125 58.90625 
Q 16.5 51.421875 16.5 36.375 
Q 16.5 21.390625 20.328125 13.890625 
Q 24.171875 6.390625 31.78125 6.390625 
Q 39.453125 6.390625 43.28125 13.890625 
Q 47.125 21.390625 47.125 36.375 
Q 47.125 51.421875 43.28125 58.90625 
Q 39.453125 66.40625 31.78125 66.40625 
z
M 31.78125 74.21875 
Q 44.046875 74.21875 50.515625 64.515625 
Q 56.984375 54.828125 56.984375 36.375 
Q 56.984375 17.96875 50.515625 8.265625 
Q 44.046875 -1.421875 31.78125 -1.421875 
Q 19.53125 -1.421875 13.0625 8.265625 
Q 6.59375 17.96875 6.59375 36.375 
Q 6.59375 54.828125 13.0625 64.515625 
Q 19.53125 74.21875 31.78125 74.21875 
z
" id="DejaVuSans-48"/>
      </defs>
      <g transform="translate(130.6375 558.68815)scale(0.1 -0.1)">
       <use xlink:href="#DejaVuSans-48"/>
      </g>
     </g>
    </g>
    <g id="ytick_2">
     <g id="line2d_2">
      <g>
       <use style="stroke:#000000;stroke-width:0.8;" x="144" xlink:href="#mecf347a60a" y="497.842937"/>
      </g>
     </g>
     <g id="text_2">
      <!-- 1 -->
      <defs>
       <path d="M 12.40625 8.296875 
L 28.515625 8.296875 
L 28.515625 63.921875 
L 10.984375 60.40625 
L 10.984375 69.390625 
L 28.421875 72.90625 
L 38.28125 72.90625 
L 38.28125 8.296875 
L 54.390625 8.296875 
L 54.390625 0 
L 12.40625 0 
z
" id="DejaVuSans-49"/>
      </defs>
      <g transform="translate(130.6375 501.642155)scale(0.1 -0.1)">
       <use xlink:href="#DejaVuSans-49"/>
      </g>
     </g>
    </g>
    <g id="ytick_3">
     <g id="line2d_3">
      <g>
       <use style="stroke:#000000;stroke-width:0.8;" x="144" xlink:href="#mecf347a60a" y="440.796943"/>
      </g>
     </g>
     <g id="text_3">
      <!-- 2 -->
      <defs>
       <path d="M 19.1875 8.296875 
L 53.609375 8.296875 
L 53.609375 0 
L 7.328125 0 
L 7.328125 8.296875 
Q 12.9375 14.109375 22.625 23.890625 
Q 32.328125 33.6875 34.8125 36.53125 
Q 39.546875 41.84375 41.421875 45.53125 
Q 43.3125 49.21875 43.3125 52.78125 
Q 43.3125 58.59375 39.234375 62.25 
Q 35.15625 65.921875 28.609375 65.921875 
Q 23.96875 65.921875 18.8125 64.3125 
Q 13.671875 62.703125 7.8125 59.421875 
L 7.8125 69.390625 
Q 13.765625 71.78125 18.9375 73 
Q 24.125 74.21875 28.421875 74.21875 
Q 39.75 74.21875 46.484375 68.546875 
Q 53.21875 62.890625 53.21875 53.421875 
Q 53.21875 48.921875 51.53125 44.890625 
Q 49.859375 40.875 45.40625 35.40625 
Q 44.1875 33.984375 37.640625 27.21875 
Q 31.109375 20.453125 19.1875 8.296875 
z
" id="DejaVuSans-50"/>
      </defs>
      <g transform="translate(130.6375 444.596161)scale(0.1 -0.1)">
       <use xlink:href="#DejaVuSans-50"/>
      </g>
     </g>
    </g>
    <g id="ytick_4">
     <g id="line2d_4">
      <g>
       <use style="stroke:#000000;stroke-width:0.8;" x="144" xlink:href="#mecf347a60a" y="383.750949"/>
      </g>
     </g>
     <g id="text_4">
      <!-- 3 -->
      <defs>
       <path d="M 40.578125 39.3125 
Q 47.65625 37.796875 51.625 33 
Q 55.609375 28.21875 55.609375 21.1875 
Q 55.609375 10.40625 48.1875 4.484375 
Q 40.765625 -1.421875 27.09375 -1.421875 
Q 22.515625 -1.421875 17.65625 -0.515625 
Q 12.796875 0.390625 7.625 2.203125 
L 7.625 11.71875 
Q 11.71875 9.328125 16.59375 8.109375 
Q 21.484375 6.890625 26.8125 6.890625 
Q 36.078125 6.890625 40.9375 10.546875 
Q 45.796875 14.203125 45.796875 21.1875 
Q 45.796875 27.640625 41.28125 31.265625 
Q 36.765625 34.90625 28.71875 34.90625 
L 20.21875 34.90625 
L 20.21875 43.015625 
L 29.109375 43.015625 
Q 36.375 43.015625 40.234375 45.921875 
Q 44.09375 48.828125 44.09375 54.296875 
Q 44.09375 59.90625 40.109375 62.90625 
Q 36.140625 65.921875 28.71875 65.921875 
Q 24.65625 65.921875 20.015625 65.03125 
Q 15.375 64.15625 9.8125 62.3125 
L 9.8125 71.09375 
Q 15.4375 72.65625 20.34375 73.4375 
Q 25.25 74.21875 29.59375 74.21875 
Q 40.828125 74.21875 47.359375 69.109375 
Q 53.90625 64.015625 53.90625 55.328125 
Q 53.90625 49.265625 50.4375 45.09375 
Q 46.96875 40.921875 40.578125 39.3125 
z
" id="DejaVuSans-51"/>
      </defs>
      <g transform="translate(130.6375 387.550167)scale(0.1 -0.1)">
       <use xlink:href="#DejaVuSans-51"/>
      </g>
     </g>
    </g>
    <g id="ytick_5">
     <g id="line2d_5">
      <g>
       <use style="stroke:#000000;stroke-width:0.8;" x="144" xlink:href="#mecf347a60a" y="326.704954"/>
      </g>
     </g>
     <g id="text_5">
      <!-- 4 -->
      <defs>
       <path d="M 37.796875 64.3125 
L 12.890625 25.390625 
L 37.796875 25.390625 
z
M 35.203125 72.90625 
L 47.609375 72.90625 
L 47.609375 25.390625 
L 58.015625 25.390625 
L 58.015625 17.1875 
L 47.609375 17.1875 
L 47.609375 0 
L 37.796875 0 
L 37.796875 17.1875 
L 4.890625 17.1875 
L 4.890625 26.703125 
z
" id="DejaVuSans-52"/>
      </defs>
      <g transform="translate(130.6375 330.504173)scale(0.1 -0.1)">
       <use xlink:href="#DejaVuSans-52"/>
      </g>
     </g>
    </g>
    <g id="ytick_6">
     <g id="line2d_6">
      <g>
       <use style="stroke:#000000;stroke-width:0.8;" x="144" xlink:href="#mecf347a60a" y="269.65896"/>
      </g>
     </g>
     <g id="text_6">
      <!-- 5 -->
      <defs>
       <path d="M 10.796875 72.90625 
L 49.515625 72.90625 
L 49.515625 64.59375 
L 19.828125 64.59375 
L 19.828125 46.734375 
Q 21.96875 47.46875 24.109375 47.828125 
Q 26.265625 48.1875 28.421875 48.1875 
Q 40.625 48.1875 47.75 41.5 
Q 54.890625 34.8125 54.890625 23.390625 
Q 54.890625 11.625 47.5625 5.09375 
Q 40.234375 -1.421875 26.90625 -1.421875 
Q 22.3125 -1.421875 17.546875 -0.640625 
Q 12.796875 0.140625 7.71875 1.703125 
L 7.71875 11.625 
Q 12.109375 9.234375 16.796875 8.0625 
Q 21.484375 6.890625 26.703125 6.890625 
Q 35.15625 6.890625 40.078125 11.328125 
Q 45.015625 15.765625 45.015625 23.390625 
Q 45.015625 31 40.078125 35.4375 
Q 35.15625 39.890625 26.703125 39.890625 
Q 22.75 39.890625 18.8125 39.015625 
Q 14.890625 38.140625 10.796875 36.28125 
z
" id="DejaVuSans-53"/>
      </defs>
      <g transform="translate(130.6375 273.458179)scale(0.1 -0.1)">
       <use xlink:href="#DejaVuSans-53"/>
      </g>
     </g>
    </g>
    <g id="ytick_7">
     <g id="line2d_7">
      <g>
       <use style="stroke:#000000;stroke-width:0.8;" x="144" xlink:href="#mecf347a60a" y="212.612966"/>
      </g>
     </g>
     <g id="text_7">
      <!-- 6 -->
      <defs>
       <path d="M 33.015625 40.375 
Q 26.375 40.375 22.484375 35.828125 
Q 18.609375 31.296875 18.609375 23.390625 
Q 18.609375 15.53125 22.484375 10.953125 
Q 26.375 6.390625 33.015625 6.390625 
Q 39.65625 6.390625 43.53125 10.953125 
Q 47.40625 15.53125 47.40625 23.390625 
Q 47.40625 31.296875 43.53125 35.828125 
Q 39.65625 40.375 33.015625 40.375 
z
M 52.59375 71.296875 
L 52.59375 62.3125 
Q 48.875 64.0625 45.09375 64.984375 
Q 41.3125 65.921875 37.59375 65.921875 
Q 27.828125 65.921875 22.671875 59.328125 
Q 17.53125 52.734375 16.796875 39.40625 
Q 19.671875 43.65625 24.015625 45.921875 
Q 28.375 48.1875 33.59375 48.1875 
Q 44.578125 48.1875 50.953125 41.515625 
Q 57.328125 34.859375 57.328125 23.390625 
Q 57.328125 12.15625 50.6875 5.359375 
Q 44.046875 -1.421875 33.015625 -1.421875 
Q 20.359375 -1.421875 13.671875 8.265625 
Q 6.984375 17.96875 6.984375 36.375 
Q 6.984375 53.65625 15.1875 63.9375 
Q 23.390625 74.21875 37.203125 74.21875 
Q 40.921875 74.21875 44.703125 73.484375 
Q 48.484375 72.75 52.59375 71.296875 
z
" id="DejaVuSans-54"/>
      </defs>
      <g transform="translate(130.6375 216.412185)scale(0.1 -0.1)">
       <use xlink:href="#DejaVuSans-54"/>
      </g>
     </g>
    </g>
    <g id="ytick_8">
     <g id="line2d_8">
      <g>
       <use style="stroke:#000000;stroke-width:0.8;" x="144" xlink:href="#mecf347a60a" y="155.566972"/>
      </g>
     </g>
     <g id="text_8">
      <!-- 7 -->
      <defs>
       <path d="M 8.203125 72.90625 
L 55.078125 72.90625 
L 55.078125 68.703125 
L 28.609375 0 
L 18.3125 0 
L 43.21875 64.59375 
L 8.203125 64.59375 
z
" id="DejaVuSans-55"/>
      </defs>
      <g transform="translate(130.6375 159.366191)scale(0.1 -0.1)">
       <use xlink:href="#DejaVuSans-55"/>
      </g>
     </g>
    </g>
    <g id="ytick_9">
     <g id="line2d_9">
      <g>
       <use style="stroke:#000000;stroke-width:0.8;" x="144" xlink:href="#mecf347a60a" y="98.520978"/>
      </g>
     </g>
     <g id="text_9">
      <!-- 8 -->
      <defs>
       <path d="M 31.78125 34.625 
Q 24.75 34.625 20.71875 30.859375 
Q 16.703125 27.09375 16.703125 20.515625 
Q 16.703125 13.921875 20.71875 10.15625 
Q 24.75 6.390625 31.78125 6.390625 
Q 38.8125 6.390625 42.859375 10.171875 
Q 46.921875 13.96875 46.921875 20.515625 
Q 46.921875 27.09375 42.890625 30.859375 
Q 38.875 34.625 31.78125 34.625 
z
M 21.921875 38.8125 
Q 15.578125 40.375 12.03125 44.71875 
Q 8.5 49.078125 8.5 55.328125 
Q 8.5 64.0625 14.71875 69.140625 
Q 20.953125 74.21875 31.78125 74.21875 
Q 42.671875 74.21875 48.875 69.140625 
Q 55.078125 64.0625 55.078125 55.328125 
Q 55.078125 49.078125 51.53125 44.71875 
Q 48 40.375 41.703125 38.8125 
Q 48.828125 37.15625 52.796875 32.3125 
Q 56.78125 27.484375 56.78125 20.515625 
Q 56.78125 9.90625 50.3125 4.234375 
Q 43.84375 -1.421875 31.78125 -1.421875 
Q 19.734375 -1.421875 13.25 4.234375 
Q 6.78125 9.90625 6.78125 20.515625 
Q 6.78125 27.484375 10.78125 32.3125 
Q 14.796875 37.15625 21.921875 38.8125 
z
M 18.3125 54.390625 
Q 18.3125 48.734375 21.84375 45.5625 
Q 25.390625 42.390625 31.78125 42.390625 
Q 38.140625 42.390625 41.71875 45.5625 
Q 45.3125 48.734375 45.3125 54.390625 
Q 45.3125 60.0625 41.71875 63.234375 
Q 38.140625 66.40625 31.78125 66.40625 
Q 25.390625 66.40625 21.84375 63.234375 
Q 18.3125 60.0625 18.3125 54.390625 
z
" id="DejaVuSans-56"/>
      </defs>
      <g transform="translate(130.6375 102.320197)scale(0.1 -0.1)">
       <use xlink:href="#DejaVuSans-56"/>
      </g>
     </g>
    </g>
   </g>
   <g id="line2d_10">
    <path clip-path="url(#pf28105ed5e)" d="M 347.794499 489.140048 
L 347.794499 371.785324 
L 363.955089 371.785324 
L 363.955089 489.140048 
" style="fill:none;stroke:#000000;stroke-linecap:square;stroke-width:1.5;"/>
   </g>
   <g id="line2d_11">
    <path clip-path="url(#pf28105ed5e)" d="M 493.239808 535.431135 
L 493.239808 457.047297 
L 509.400398 457.047297 
L 509.400398 544.1458 
" style="fill:none;stroke:#000000;stroke-linecap:square;stroke-width:1.5;"/>
   </g>
   <g id="line2d_12">
    <path clip-path="url(#pf28105ed5e)" d="M 477.079218 512.489213 
L 477.079218 454.212878 
L 501.320103 454.212878 
L 501.320103 457.047297 
" style="fill:none;stroke:#000000;stroke-linecap:square;stroke-width:1.5;"/>
   </g>
   <g id="line2d_13">
    <path clip-path="url(#pf28105ed5e)" d="M 460.918628 512.389862 
L 460.918628 440.4724 
L 489.19966 440.4724 
L 489.19966 454.212878 
" style="fill:none;stroke:#000000;stroke-linecap:square;stroke-width:1.5;"/>
   </g>
   <g id="line2d_14">
    <path clip-path="url(#pf28105ed5e)" d="M 590.203347 546.319287 
L 590.203347 545.149391 
L 606.363937 545.149391 
L 606.363937 545.149391 
" style="fill:none;stroke:#000000;stroke-linecap:square;stroke-width:1.5;"/>
   </g>
   <g id="line2d_15">
    <path clip-path="url(#pf28105ed5e)" d="M 622.524527 542.552685 
L 622.524527 542.552685 
L 638.685117 542.552685 
L 638.685117 545.149391 
" style="fill:none;stroke:#000000;stroke-linecap:square;stroke-width:1.5;"/>
   </g>
   <g id="line2d_16">
    <path clip-path="url(#pf28105ed5e)" d="M 598.283642 545.149391 
L 598.283642 542.552685 
L 630.604822 542.552685 
L 630.604822 542.552685 
" style="fill:none;stroke:#000000;stroke-linecap:square;stroke-width:1.5;"/>
   </g>
   <g id="line2d_17">
    <path clip-path="url(#pf28105ed5e)" d="M 574.042757 549.874776 
L 574.042757 520.86611 
L 614.444232 520.86611 
L 614.444232 542.552685 
" style="fill:none;stroke:#000000;stroke-linecap:square;stroke-width:1.5;"/>
   </g>
   <g id="line2d_18">
    <path clip-path="url(#pf28105ed5e)" d="M 557.882167 543.999961 
L 557.882167 498.381006 
L 594.243495 498.381006 
L 594.243495 520.86611 
" style="fill:none;stroke:#000000;stroke-linecap:square;stroke-width:1.5;"/>
   </g>
   <g id="line2d_19">
    <path clip-path="url(#pf28105ed5e)" d="M 541.721577 514.590554 
L 541.721577 482.673046 
L 576.062831 482.673046 
L 576.062831 498.381006 
" style="fill:none;stroke:#000000;stroke-linecap:square;stroke-width:1.5;"/>
   </g>
   <g id="line2d_20">
    <path clip-path="url(#pf28105ed5e)" d="M 525.560988 505.538987 
L 525.560988 454.267349 
L 558.892204 454.267349 
L 558.892204 482.673046 
" style="fill:none;stroke:#000000;stroke-linecap:square;stroke-width:1.5;"/>
   </g>
   <g id="line2d_21">
    <path clip-path="url(#pf28105ed5e)" d="M 654.845707 437.007807 
L 654.845707 437.007807 
L 671.006297 437.007807 
L 671.006297 447.902524 
" style="fill:none;stroke:#000000;stroke-linecap:square;stroke-width:1.5;"/>
   </g>
   <g id="line2d_22">
    <path clip-path="url(#pf28105ed5e)" d="M 542.226596 454.267349 
L 542.226596 424.325092 
L 662.926002 424.325092 
L 662.926002 437.007807 
" style="fill:none;stroke:#000000;stroke-linecap:square;stroke-width:1.5;"/>
   </g>
   <g id="line2d_23">
    <path clip-path="url(#pf28105ed5e)" d="M 784.130426 527.634166 
L 784.130426 522.510386 
L 800.291016 522.510386 
L 800.291016 522.510386 
" style="fill:none;stroke:#000000;stroke-linecap:square;stroke-width:1.5;"/>
   </g>
   <g id="line2d_24">
    <path clip-path="url(#pf28105ed5e)" d="M 767.969836 490.302503 
L 767.969836 490.302503 
L 792.210721 490.302503 
L 792.210721 522.510386 
" style="fill:none;stroke:#000000;stroke-linecap:square;stroke-width:1.5;"/>
   </g>
   <g id="line2d_25">
    <path clip-path="url(#pf28105ed5e)" d="M 751.809246 513.233994 
L 751.809246 488.49932 
L 780.090278 488.49932 
L 780.090278 490.302503 
" style="fill:none;stroke:#000000;stroke-linecap:square;stroke-width:1.5;"/>
   </g>
   <g id="line2d_26">
    <path clip-path="url(#pf28105ed5e)" d="M 735.648656 474.583255 
L 735.648656 474.583255 
L 765.949762 474.583255 
L 765.949762 488.49932 
" style="fill:none;stroke:#000000;stroke-linecap:square;stroke-width:1.5;"/>
   </g>
   <g id="line2d_27">
    <path clip-path="url(#pf28105ed5e)" d="M 719.488066 483.513094 
L 719.488066 444.248546 
L 750.799209 444.248546 
L 750.799209 474.583255 
" style="fill:none;stroke:#000000;stroke-linecap:square;stroke-width:1.5;"/>
   </g>
   <g id="line2d_28">
    <path clip-path="url(#pf28105ed5e)" d="M 703.327476 528.931988 
L 703.327476 426.235709 
L 735.143638 426.235709 
L 735.143638 444.248546 
" style="fill:none;stroke:#000000;stroke-linecap:square;stroke-width:1.5;"/>
   </g>
   <g id="line2d_29">
    <path clip-path="url(#pf28105ed5e)" d="M 687.166886 545.906483 
L 687.166886 413.549186 
L 719.235557 413.549186 
L 719.235557 426.235709 
" style="fill:none;stroke:#000000;stroke-linecap:square;stroke-width:1.5;"/>
   </g>
   <g id="line2d_30">
    <path clip-path="url(#pf28105ed5e)" d="M 602.576299 424.325092 
L 602.576299 407.751631 
L 703.201222 407.751631 
L 703.201222 413.549186 
" style="fill:none;stroke:#000000;stroke-linecap:square;stroke-width:1.5;"/>
   </g>
   <g id="line2d_31">
    <path clip-path="url(#pf28105ed5e)" d="M 913.415145 552.755361 
L 913.415145 542.587977 
L 929.575735 542.587977 
L 929.575735 542.587977 
" style="fill:none;stroke:#000000;stroke-linecap:square;stroke-width:1.5;"/>
   </g>
   <g id="line2d_32">
    <path clip-path="url(#pf28105ed5e)" d="M 945.736325 546.715185 
L 945.736325 537.145203 
L 961.896915 537.145203 
L 961.896915 537.145203 
" style="fill:none;stroke:#000000;stroke-linecap:square;stroke-width:1.5;"/>
   </g>
   <g id="line2d_33">
    <path clip-path="url(#pf28105ed5e)" d="M 921.49544 542.587977 
L 921.49544 525.072414 
L 953.81662 525.072414 
L 953.81662 537.145203 
" style="fill:none;stroke:#000000;stroke-linecap:square;stroke-width:1.5;"/>
   </g>
   <g id="line2d_34">
    <path clip-path="url(#pf28105ed5e)" d="M 897.254555 545.521075 
L 897.254555 489.592921 
L 937.65603 489.592921 
L 937.65603 525.072414 
" style="fill:none;stroke:#000000;stroke-linecap:square;stroke-width:1.5;"/>
   </g>
   <g id="line2d_35">
    <path clip-path="url(#pf28105ed5e)" d="M 881.093965 485.3964 
L 881.093965 483.956087 
L 917.455292 483.956087 
L 917.455292 489.592921 
" style="fill:none;stroke:#000000;stroke-linecap:square;stroke-width:1.5;"/>
   </g>
   <g id="line2d_36">
    <path clip-path="url(#pf28105ed5e)" d="M 864.933375 532.707652 
L 864.933375 471.46343 
L 899.274629 471.46343 
L 899.274629 483.956087 
" style="fill:none;stroke:#000000;stroke-linecap:square;stroke-width:1.5;"/>
   </g>
   <g id="line2d_37">
    <path clip-path="url(#pf28105ed5e)" d="M 848.772785 519.586919 
L 848.772785 441.310013 
L 882.104002 441.310013 
L 882.104002 471.46343 
" style="fill:none;stroke:#000000;stroke-linecap:square;stroke-width:1.5;"/>
   </g>
   <g id="line2d_38">
    <path clip-path="url(#pf28105ed5e)" d="M 832.612195 532.801035 
L 832.612195 423.546078 
L 865.438394 423.546078 
L 865.438394 441.310013 
" style="fill:none;stroke:#000000;stroke-linecap:square;stroke-width:1.5;"/>
   </g>
   <g id="line2d_39">
    <path clip-path="url(#pf28105ed5e)" d="M 816.451606 457.941408 
L 816.451606 384.256464 
L 849.025295 384.256464 
L 849.025295 423.546078 
" style="fill:none;stroke:#000000;stroke-linecap:square;stroke-width:1.5;"/>
   </g>
   <g id="line2d_40">
    <path clip-path="url(#pf28105ed5e)" d="M 652.88876 407.751631 
L 652.88876 381.509519 
L 832.73845 381.509519 
L 832.73845 384.256464 
" style="fill:none;stroke:#000000;stroke-linecap:square;stroke-width:1.5;"/>
   </g>
   <g id="line2d_41">
    <path clip-path="url(#pf28105ed5e)" d="M 475.059144 440.4724 
L 475.059144 374.942157 
L 742.813605 374.942157 
L 742.813605 381.509519 
" style="fill:none;stroke:#000000;stroke-linecap:square;stroke-width:1.5;"/>
   </g>
   <g id="line2d_42">
    <path clip-path="url(#pf28105ed5e)" d="M 444.758038 552.232226 
L 444.758038 373.197171 
L 608.936375 373.197171 
L 608.936375 374.942157 
" style="fill:none;stroke:#000000;stroke-linecap:square;stroke-width:1.5;"/>
   </g>
   <g id="line2d_43">
    <path clip-path="url(#pf28105ed5e)" d="M 428.597448 526.514271 
L 428.597448 371.23585 
L 526.847206 371.23585 
L 526.847206 373.197171 
" style="fill:none;stroke:#000000;stroke-linecap:square;stroke-width:1.5;"/>
   </g>
   <g id="line2d_44">
    <path clip-path="url(#pf28105ed5e)" d="M 412.436858 549.100194 
L 412.436858 362.188391 
L 477.722327 362.188391 
L 477.722327 371.23585 
" style="fill:none;stroke:#000000;stroke-linecap:square;stroke-width:1.5;"/>
   </g>
   <g id="line2d_45">
    <path clip-path="url(#pf28105ed5e)" d="M 396.276268 482.926674 
L 396.276268 341.562781 
L 445.079593 341.562781 
L 445.079593 362.188391 
" style="fill:none;stroke:#000000;stroke-linecap:square;stroke-width:1.5;"/>
   </g>
   <g id="line2d_46">
    <path clip-path="url(#pf28105ed5e)" d="M 380.115679 460.745266 
L 380.115679 332.956329 
L 420.677931 332.956329 
L 420.677931 341.562781 
" style="fill:none;stroke:#000000;stroke-linecap:square;stroke-width:1.5;"/>
   </g>
   <g id="line2d_47">
    <path clip-path="url(#pf28105ed5e)" d="M 355.874794 371.785324 
L 355.874794 332.627066 
L 400.396805 332.627066 
L 400.396805 332.956329 
" style="fill:none;stroke:#000000;stroke-linecap:square;stroke-width:1.5;"/>
   </g>
   <g id="line2d_48">
    <path clip-path="url(#pf28105ed5e)" d="M 331.633909 474.01338 
L 331.633909 311.47981 
L 378.135799 311.47981 
L 378.135799 332.627066 
" style="fill:none;stroke:#000000;stroke-linecap:square;stroke-width:1.5;"/>
   </g>
   <g id="line2d_49">
    <path clip-path="url(#pf28105ed5e)" d="M 315.473319 473.552707 
L 315.473319 301.577975 
L 354.884854 301.577975 
L 354.884854 311.47981 
" style="fill:none;stroke:#000000;stroke-linecap:square;stroke-width:1.5;"/>
   </g>
   <g id="line2d_50">
    <path clip-path="url(#pf28105ed5e)" d="M 299.312729 534.3103 
L 299.312729 289.025882 
L 335.179087 289.025882 
L 335.179087 301.577975 
" style="fill:none;stroke:#000000;stroke-linecap:square;stroke-width:1.5;"/>
   </g>
   <g id="line2d_51">
    <path clip-path="url(#pf28105ed5e)" d="M 283.152139 525.082567 
L 283.152139 280.685203 
L 317.245908 280.685203 
L 317.245908 289.025882 
" style="fill:none;stroke:#000000;stroke-linecap:square;stroke-width:1.5;"/>
   </g>
   <g id="line2d_52">
    <path clip-path="url(#pf28105ed5e)" d="M 978.057504 503.863087 
L 978.057504 270.949815 
L 994.218094 270.949815 
L 994.218094 483.513094 
" style="fill:none;stroke:#000000;stroke-linecap:square;stroke-width:1.5;"/>
   </g>
   <g id="line2d_53">
    <path clip-path="url(#pf28105ed5e)" d="M 300.199024 280.685203 
L 300.199024 251.882193 
L 986.137799 251.882193 
L 986.137799 270.949815 
" style="fill:none;stroke:#000000;stroke-linecap:square;stroke-width:1.5;"/>
   </g>
   <g id="line2d_54">
    <path clip-path="url(#pf28105ed5e)" d="M 266.991549 448.014941 
L 266.991549 242.473604 
L 643.168411 242.473604 
L 643.168411 251.882193 
" style="fill:none;stroke:#000000;stroke-linecap:square;stroke-width:1.5;"/>
   </g>
   <g id="line2d_55">
    <path clip-path="url(#pf28105ed5e)" d="M 250.830959 544.665986 
L 250.830959 238.686128 
L 455.07998 238.686128 
L 455.07998 242.473604 
" style="fill:none;stroke:#000000;stroke-linecap:square;stroke-width:1.5;"/>
   </g>
   <g id="line2d_56">
    <path clip-path="url(#pf28105ed5e)" d="M 234.67037 536.584375 
L 234.67037 228.512358 
L 352.95547 228.512358 
L 352.95547 238.686128 
" style="fill:none;stroke:#000000;stroke-linecap:square;stroke-width:1.5;"/>
   </g>
   <g id="line2d_57">
    <path clip-path="url(#pf28105ed5e)" d="M 218.50978 551.939827 
L 218.50978 172.118061 
L 293.81292 172.118061 
L 293.81292 228.512358 
" style="fill:none;stroke:#000000;stroke-linecap:square;stroke-width:1.5;"/>
   </g>
   <g id="line2d_58">
    <path clip-path="url(#pf28105ed5e)" d="M 202.34919 505.897213 
L 202.34919 112.278158 
L 256.16135 112.278158 
L 256.16135 172.118061 
" style="fill:none;stroke:#000000;stroke-linecap:square;stroke-width:1.5;"/>
   </g>
   <g id="line2d_59">
    <path clip-path="url(#pf28105ed5e)" d="M 186.1886 482.928442 
L 186.1886 100.44 
L 229.25527 100.44 
L 229.25527 112.278158 
" style="fill:none;stroke:#000000;stroke-linecap:square;stroke-width:1.5;"/>
   </g>
   <g id="text_10">
    <!-- 42(2) -->
    <defs>
     <path d="M 31 75.875 
Q 24.46875 64.65625 21.28125 53.65625 
Q 18.109375 42.671875 18.109375 31.390625 
Q 18.109375 20.125 21.3125 9.0625 
Q 24.515625 -2 31 -13.1875 
L 23.1875 -13.1875 
Q 15.875 -1.703125 12.234375 9.375 
Q 8.59375 20.453125 8.59375 31.390625 
Q 8.59375 42.28125 12.203125 53.3125 
Q 15.828125 64.359375 23.1875 75.875 
z
" id="DejaVuSans-40"/>
     <path d="M 8.015625 75.875 
L 15.828125 75.875 
Q 23.140625 64.359375 26.78125 53.3125 
Q 30.421875 42.28125 30.421875 31.390625 
Q 30.421875 20.453125 26.78125 9.375 
Q 23.140625 -1.703125 15.828125 -13.1875 
L 8.015625 -13.1875 
Q 14.5 -2 17.703125 9.0625 
Q 20.90625 20.125 20.90625 31.390625 
Q 20.90625 42.671875 17.703125 53.65625 
Q 14.5 64.65625 8.015625 75.875 
z
" id="DejaVuSans-41"/>
    </defs>
    <g transform="translate(347.794499 500.549247)scale(0.0579 -0.0579)">
     <use xlink:href="#DejaVuSans-52"/>
     <use x="63.623047" xlink:href="#DejaVuSans-50"/>
     <use x="127.246094" xlink:href="#DejaVuSans-40"/>
     <use x="166.259766" xlink:href="#DejaVuSans-50"/>
     <use x="229.882812" xlink:href="#DejaVuSans-41"/>
    </g>
   </g>
   <g id="text_11">
    <!-- 44(2) -->
    <g transform="translate(363.955089 500.549247)scale(0.0579 -0.0579)">
     <use xlink:href="#DejaVuSans-52"/>
     <use x="63.623047" xlink:href="#DejaVuSans-52"/>
     <use x="127.246094" xlink:href="#DejaVuSans-40"/>
     <use x="166.259766" xlink:href="#DejaVuSans-50"/>
     <use x="229.882812" xlink:href="#DejaVuSans-41"/>
    </g>
   </g>
   <g id="text_12">
    <!-- 7(6) -->
    <g transform="translate(493.239808 546.840334)scale(0.0579 -0.0579)">
     <use xlink:href="#DejaVuSans-55"/>
     <use x="63.623047" xlink:href="#DejaVuSans-40"/>
     <use x="102.636719" xlink:href="#DejaVuSans-54"/>
     <use x="166.259766" xlink:href="#DejaVuSans-41"/>
    </g>
   </g>
   <g id="text_13">
    <!-- 56(6) -->
    <g transform="translate(509.400398 555.554999)scale(0.0579 -0.0579)">
     <use xlink:href="#DejaVuSans-53"/>
     <use x="63.623047" xlink:href="#DejaVuSans-54"/>
     <use x="127.246094" xlink:href="#DejaVuSans-40"/>
     <use x="166.259766" xlink:href="#DejaVuSans-54"/>
     <use x="229.882812" xlink:href="#DejaVuSans-41"/>
    </g>
   </g>
   <g id="text_14">
    <!-- 24(2) -->
    <g transform="translate(477.079218 523.898412)scale(0.0579 -0.0579)">
     <use xlink:href="#DejaVuSans-50"/>
     <use x="63.623047" xlink:href="#DejaVuSans-52"/>
     <use x="127.246094" xlink:href="#DejaVuSans-40"/>
     <use x="166.259766" xlink:href="#DejaVuSans-50"/>
     <use x="229.882812" xlink:href="#DejaVuSans-41"/>
    </g>
   </g>
   <g id="text_15">
    <!-- 23(5) -->
    <g transform="translate(460.918628 523.799061)scale(0.0579 -0.0579)">
     <use xlink:href="#DejaVuSans-50"/>
     <use x="63.623047" xlink:href="#DejaVuSans-51"/>
     <use x="127.246094" xlink:href="#DejaVuSans-40"/>
     <use x="166.259766" xlink:href="#DejaVuSans-53"/>
     <use x="229.882812" xlink:href="#DejaVuSans-41"/>
    </g>
   </g>
   <g id="text_16">
    <!-- 11(10) -->
    <g transform="translate(590.203347 557.728486)scale(0.0579 -0.0579)">
     <use xlink:href="#DejaVuSans-49"/>
     <use x="63.623047" xlink:href="#DejaVuSans-49"/>
     <use x="127.246094" xlink:href="#DejaVuSans-40"/>
     <use x="166.259766" xlink:href="#DejaVuSans-49"/>
     <use x="229.882812" xlink:href="#DejaVuSans-48"/>
     <use x="293.505859" xlink:href="#DejaVuSans-41"/>
    </g>
   </g>
   <g id="text_17">
    <!-- 63(10) -->
    <g transform="translate(606.363937 556.55859)scale(0.0579 -0.0579)">
     <use xlink:href="#DejaVuSans-54"/>
     <use x="63.623047" xlink:href="#DejaVuSans-51"/>
     <use x="127.246094" xlink:href="#DejaVuSans-40"/>
     <use x="166.259766" xlink:href="#DejaVuSans-49"/>
     <use x="229.882812" xlink:href="#DejaVuSans-48"/>
     <use x="293.505859" xlink:href="#DejaVuSans-41"/>
    </g>
   </g>
   <g id="text_18">
    <!-- 17(12) -->
    <g transform="translate(622.524527 553.961884)scale(0.0579 -0.0579)">
     <use xlink:href="#DejaVuSans-49"/>
     <use x="63.623047" xlink:href="#DejaVuSans-55"/>
     <use x="127.246094" xlink:href="#DejaVuSans-40"/>
     <use x="166.259766" xlink:href="#DejaVuSans-49"/>
     <use x="229.882812" xlink:href="#DejaVuSans-50"/>
     <use x="293.505859" xlink:href="#DejaVuSans-41"/>
    </g>
   </g>
   <g id="text_19">
    <!-- 26(6) -->
    <g transform="translate(638.685117 556.55859)scale(0.0579 -0.0579)">
     <use xlink:href="#DejaVuSans-50"/>
     <use x="63.623047" xlink:href="#DejaVuSans-54"/>
     <use x="127.246094" xlink:href="#DejaVuSans-40"/>
     <use x="166.259766" xlink:href="#DejaVuSans-54"/>
     <use x="229.882812" xlink:href="#DejaVuSans-41"/>
    </g>
   </g>
   <g id="text_20">
    <!-- 18(5) -->
    <g transform="translate(574.042757 561.283975)scale(0.0579 -0.0579)">
     <use xlink:href="#DejaVuSans-49"/>
     <use x="63.623047" xlink:href="#DejaVuSans-56"/>
     <use x="127.246094" xlink:href="#DejaVuSans-40"/>
     <use x="166.259766" xlink:href="#DejaVuSans-53"/>
     <use x="229.882812" xlink:href="#DejaVuSans-41"/>
    </g>
   </g>
   <g id="text_21">
    <!-- 40(8) -->
    <g transform="translate(557.882167 555.40916)scale(0.0579 -0.0579)">
     <use xlink:href="#DejaVuSans-52"/>
     <use x="63.623047" xlink:href="#DejaVuSans-48"/>
     <use x="127.246094" xlink:href="#DejaVuSans-40"/>
     <use x="166.259766" xlink:href="#DejaVuSans-56"/>
     <use x="229.882812" xlink:href="#DejaVuSans-41"/>
    </g>
   </g>
   <g id="text_22">
    <!-- 46(3) -->
    <g transform="translate(541.721577 525.999753)scale(0.0579 -0.0579)">
     <use xlink:href="#DejaVuSans-52"/>
     <use x="63.623047" xlink:href="#DejaVuSans-54"/>
     <use x="127.246094" xlink:href="#DejaVuSans-40"/>
     <use x="166.259766" xlink:href="#DejaVuSans-51"/>
     <use x="229.882812" xlink:href="#DejaVuSans-41"/>
    </g>
   </g>
   <g id="text_23">
    <!-- 69(16) -->
    <defs>
     <path d="M 10.984375 1.515625 
L 10.984375 10.5 
Q 14.703125 8.734375 18.5 7.8125 
Q 22.3125 6.890625 25.984375 6.890625 
Q 35.75 6.890625 40.890625 13.453125 
Q 46.046875 20.015625 46.78125 33.40625 
Q 43.953125 29.203125 39.59375 26.953125 
Q 35.25 24.703125 29.984375 24.703125 
Q 19.046875 24.703125 12.671875 31.3125 
Q 6.296875 37.9375 6.296875 49.421875 
Q 6.296875 60.640625 12.9375 67.421875 
Q 19.578125 74.21875 30.609375 74.21875 
Q 43.265625 74.21875 49.921875 64.515625 
Q 56.59375 54.828125 56.59375 36.375 
Q 56.59375 19.140625 48.40625 8.859375 
Q 40.234375 -1.421875 26.421875 -1.421875 
Q 22.703125 -1.421875 18.890625 -0.6875 
Q 15.09375 0.046875 10.984375 1.515625 
z
M 30.609375 32.421875 
Q 37.25 32.421875 41.125 36.953125 
Q 45.015625 41.5 45.015625 49.421875 
Q 45.015625 57.28125 41.125 61.84375 
Q 37.25 66.40625 30.609375 66.40625 
Q 23.96875 66.40625 20.09375 61.84375 
Q 16.21875 57.28125 16.21875 49.421875 
Q 16.21875 41.5 20.09375 36.953125 
Q 23.96875 32.421875 30.609375 32.421875 
z
" id="DejaVuSans-57"/>
    </defs>
    <g transform="translate(525.560988 516.948186)scale(0.0579 -0.0579)">
     <use xlink:href="#DejaVuSans-54"/>
     <use x="63.623047" xlink:href="#DejaVuSans-57"/>
     <use x="127.246094" xlink:href="#DejaVuSans-40"/>
     <use x="166.259766" xlink:href="#DejaVuSans-49"/>
     <use x="229.882812" xlink:href="#DejaVuSans-54"/>
     <use x="293.505859" xlink:href="#DejaVuSans-41"/>
    </g>
   </g>
   <g id="text_24">
    <!-- 13(3) -->
    <g transform="translate(654.845707 448.417006)scale(0.0579 -0.0579)">
     <use xlink:href="#DejaVuSans-49"/>
     <use x="63.623047" xlink:href="#DejaVuSans-51"/>
     <use x="127.246094" xlink:href="#DejaVuSans-40"/>
     <use x="166.259766" xlink:href="#DejaVuSans-51"/>
     <use x="229.882812" xlink:href="#DejaVuSans-41"/>
    </g>
   </g>
   <g id="text_25">
    <!-- 37(25) -->
    <g transform="translate(671.006297 459.311722)scale(0.0579 -0.0579)">
     <use xlink:href="#DejaVuSans-51"/>
     <use x="63.623047" xlink:href="#DejaVuSans-55"/>
     <use x="127.246094" xlink:href="#DejaVuSans-40"/>
     <use x="166.259766" xlink:href="#DejaVuSans-50"/>
     <use x="229.882812" xlink:href="#DejaVuSans-53"/>
     <use x="293.505859" xlink:href="#DejaVuSans-41"/>
    </g>
   </g>
   <g id="text_26">
    <!-- 5(6) -->
    <g transform="translate(784.130426 539.043365)scale(0.0579 -0.0579)">
     <use xlink:href="#DejaVuSans-53"/>
     <use x="63.623047" xlink:href="#DejaVuSans-40"/>
     <use x="102.636719" xlink:href="#DejaVuSans-54"/>
     <use x="166.259766" xlink:href="#DejaVuSans-41"/>
    </g>
   </g>
   <g id="text_27">
    <!-- 55(3) -->
    <g transform="translate(800.291016 533.919584)scale(0.0579 -0.0579)">
     <use xlink:href="#DejaVuSans-53"/>
     <use x="63.623047" xlink:href="#DejaVuSans-53"/>
     <use x="127.246094" xlink:href="#DejaVuSans-40"/>
     <use x="166.259766" xlink:href="#DejaVuSans-51"/>
     <use x="229.882812" xlink:href="#DejaVuSans-41"/>
    </g>
   </g>
   <g id="text_28">
    <!-- 20(4) -->
    <g transform="translate(767.969836 501.711702)scale(0.0579 -0.0579)">
     <use xlink:href="#DejaVuSans-50"/>
     <use x="63.623047" xlink:href="#DejaVuSans-48"/>
     <use x="127.246094" xlink:href="#DejaVuSans-40"/>
     <use x="166.259766" xlink:href="#DejaVuSans-52"/>
     <use x="229.882812" xlink:href="#DejaVuSans-41"/>
    </g>
   </g>
   <g id="text_29">
    <!-- 21(2) -->
    <g transform="translate(751.809246 524.643193)scale(0.0579 -0.0579)">
     <use xlink:href="#DejaVuSans-50"/>
     <use x="63.623047" xlink:href="#DejaVuSans-49"/>
     <use x="127.246094" xlink:href="#DejaVuSans-40"/>
     <use x="166.259766" xlink:href="#DejaVuSans-50"/>
     <use x="229.882812" xlink:href="#DejaVuSans-41"/>
    </g>
   </g>
   <g id="text_30">
    <!-- 45(2) -->
    <g transform="translate(735.648656 485.992454)scale(0.0579 -0.0579)">
     <use xlink:href="#DejaVuSans-52"/>
     <use x="63.623047" xlink:href="#DejaVuSans-53"/>
     <use x="127.246094" xlink:href="#DejaVuSans-40"/>
     <use x="166.259766" xlink:href="#DejaVuSans-50"/>
     <use x="229.882812" xlink:href="#DejaVuSans-41"/>
    </g>
   </g>
   <g id="text_31">
    <!-- 80(2) -->
    <g transform="translate(719.488066 494.922293)scale(0.0579 -0.0579)">
     <use xlink:href="#DejaVuSans-56"/>
     <use x="63.623047" xlink:href="#DejaVuSans-48"/>
     <use x="127.246094" xlink:href="#DejaVuSans-40"/>
     <use x="166.259766" xlink:href="#DejaVuSans-50"/>
     <use x="229.882812" xlink:href="#DejaVuSans-41"/>
    </g>
   </g>
   <g id="text_32">
    <!-- 22(1) -->
    <g transform="translate(703.327476 540.341187)scale(0.0579 -0.0579)">
     <use xlink:href="#DejaVuSans-50"/>
     <use x="63.623047" xlink:href="#DejaVuSans-50"/>
     <use x="127.246094" xlink:href="#DejaVuSans-40"/>
     <use x="166.259766" xlink:href="#DejaVuSans-49"/>
     <use x="229.882812" xlink:href="#DejaVuSans-41"/>
    </g>
   </g>
   <g id="text_33">
    <!-- 6(16) -->
    <g transform="translate(687.166886 557.315682)scale(0.0579 -0.0579)">
     <use xlink:href="#DejaVuSans-54"/>
     <use x="63.623047" xlink:href="#DejaVuSans-40"/>
     <use x="102.636719" xlink:href="#DejaVuSans-49"/>
     <use x="166.259766" xlink:href="#DejaVuSans-54"/>
     <use x="229.882812" xlink:href="#DejaVuSans-41"/>
    </g>
   </g>
   <g id="text_34">
    <!-- 2(24) -->
    <g transform="translate(913.415145 564.16456)scale(0.0579 -0.0579)">
     <use xlink:href="#DejaVuSans-50"/>
     <use x="63.623047" xlink:href="#DejaVuSans-40"/>
     <use x="102.636719" xlink:href="#DejaVuSans-50"/>
     <use x="166.259766" xlink:href="#DejaVuSans-52"/>
     <use x="229.882812" xlink:href="#DejaVuSans-41"/>
    </g>
   </g>
   <g id="text_35">
    <!-- 3(8) -->
    <g transform="translate(929.575735 553.997176)scale(0.0579 -0.0579)">
     <use xlink:href="#DejaVuSans-51"/>
     <use x="63.623047" xlink:href="#DejaVuSans-40"/>
     <use x="102.636719" xlink:href="#DejaVuSans-56"/>
     <use x="166.259766" xlink:href="#DejaVuSans-41"/>
    </g>
   </g>
   <g id="text_36">
    <!-- 25(5) -->
    <g transform="translate(945.736325 558.124384)scale(0.0579 -0.0579)">
     <use xlink:href="#DejaVuSans-50"/>
     <use x="63.623047" xlink:href="#DejaVuSans-53"/>
     <use x="127.246094" xlink:href="#DejaVuSans-40"/>
     <use x="166.259766" xlink:href="#DejaVuSans-53"/>
     <use x="229.882812" xlink:href="#DejaVuSans-41"/>
    </g>
   </g>
   <g id="text_37">
    <!-- 32(21) -->
    <g transform="translate(961.896915 548.554402)scale(0.0579 -0.0579)">
     <use xlink:href="#DejaVuSans-51"/>
     <use x="63.623047" xlink:href="#DejaVuSans-50"/>
     <use x="127.246094" xlink:href="#DejaVuSans-40"/>
     <use x="166.259766" xlink:href="#DejaVuSans-50"/>
     <use x="229.882812" xlink:href="#DejaVuSans-49"/>
     <use x="293.505859" xlink:href="#DejaVuSans-41"/>
    </g>
   </g>
   <g id="text_38">
    <!-- 4(6) -->
    <g transform="translate(897.254555 556.930273)scale(0.0579 -0.0579)">
     <use xlink:href="#DejaVuSans-52"/>
     <use x="63.623047" xlink:href="#DejaVuSans-40"/>
     <use x="102.636719" xlink:href="#DejaVuSans-54"/>
     <use x="166.259766" xlink:href="#DejaVuSans-41"/>
    </g>
   </g>
   <g id="text_39">
    <!-- 87(5) -->
    <g transform="translate(881.093965 496.805599)scale(0.0579 -0.0579)">
     <use xlink:href="#DejaVuSans-56"/>
     <use x="63.623047" xlink:href="#DejaVuSans-55"/>
     <use x="127.246094" xlink:href="#DejaVuSans-40"/>
     <use x="166.259766" xlink:href="#DejaVuSans-53"/>
     <use x="229.882812" xlink:href="#DejaVuSans-41"/>
    </g>
   </g>
   <g id="text_40">
    <!-- 38(9) -->
    <g transform="translate(864.933375 544.11685)scale(0.0579 -0.0579)">
     <use xlink:href="#DejaVuSans-51"/>
     <use x="63.623047" xlink:href="#DejaVuSans-56"/>
     <use x="127.246094" xlink:href="#DejaVuSans-40"/>
     <use x="166.259766" xlink:href="#DejaVuSans-57"/>
     <use x="229.882812" xlink:href="#DejaVuSans-41"/>
    </g>
   </g>
   <g id="text_41">
    <!-- 39(12) -->
    <g transform="translate(848.772785 530.996118)scale(0.0579 -0.0579)">
     <use xlink:href="#DejaVuSans-51"/>
     <use x="63.623047" xlink:href="#DejaVuSans-57"/>
     <use x="127.246094" xlink:href="#DejaVuSans-40"/>
     <use x="166.259766" xlink:href="#DejaVuSans-49"/>
     <use x="229.882812" xlink:href="#DejaVuSans-50"/>
     <use x="293.505859" xlink:href="#DejaVuSans-41"/>
    </g>
   </g>
   <g id="text_42">
    <!-- 29(2) -->
    <g transform="translate(832.612195 544.210234)scale(0.0579 -0.0579)">
     <use xlink:href="#DejaVuSans-50"/>
     <use x="63.623047" xlink:href="#DejaVuSans-57"/>
     <use x="127.246094" xlink:href="#DejaVuSans-40"/>
     <use x="166.259766" xlink:href="#DejaVuSans-50"/>
     <use x="229.882812" xlink:href="#DejaVuSans-41"/>
    </g>
   </g>
   <g id="text_43">
    <!-- 62(3) -->
    <g transform="translate(816.451606 469.350607)scale(0.0579 -0.0579)">
     <use xlink:href="#DejaVuSans-54"/>
     <use x="63.623047" xlink:href="#DejaVuSans-50"/>
     <use x="127.246094" xlink:href="#DejaVuSans-40"/>
     <use x="166.259766" xlink:href="#DejaVuSans-51"/>
     <use x="229.882812" xlink:href="#DejaVuSans-41"/>
    </g>
   </g>
   <g id="text_44">
    <!-- 58(4) -->
    <g transform="translate(444.758038 563.641425)scale(0.0579 -0.0579)">
     <use xlink:href="#DejaVuSans-53"/>
     <use x="63.623047" xlink:href="#DejaVuSans-56"/>
     <use x="127.246094" xlink:href="#DejaVuSans-40"/>
     <use x="166.259766" xlink:href="#DejaVuSans-52"/>
     <use x="229.882812" xlink:href="#DejaVuSans-41"/>
    </g>
   </g>
   <g id="text_45">
    <!-- 28(4) -->
    <g transform="translate(428.597448 537.92347)scale(0.0579 -0.0579)">
     <use xlink:href="#DejaVuSans-50"/>
     <use x="63.623047" xlink:href="#DejaVuSans-56"/>
     <use x="127.246094" xlink:href="#DejaVuSans-40"/>
     <use x="166.259766" xlink:href="#DejaVuSans-52"/>
     <use x="229.882812" xlink:href="#DejaVuSans-41"/>
    </g>
   </g>
   <g id="text_46">
    <!-- 10(8) -->
    <g transform="translate(412.436858 560.509392)scale(0.0579 -0.0579)">
     <use xlink:href="#DejaVuSans-49"/>
     <use x="63.623047" xlink:href="#DejaVuSans-48"/>
     <use x="127.246094" xlink:href="#DejaVuSans-40"/>
     <use x="166.259766" xlink:href="#DejaVuSans-56"/>
     <use x="229.882812" xlink:href="#DejaVuSans-41"/>
    </g>
   </g>
   <g id="text_47">
    <!-- 8(3) -->
    <g transform="translate(396.276268 494.335873)scale(0.0579 -0.0579)">
     <use xlink:href="#DejaVuSans-56"/>
     <use x="63.623047" xlink:href="#DejaVuSans-40"/>
     <use x="102.636719" xlink:href="#DejaVuSans-51"/>
     <use x="166.259766" xlink:href="#DejaVuSans-41"/>
    </g>
   </g>
   <g id="text_48">
    <!-- 53(2) -->
    <g transform="translate(380.115679 472.154464)scale(0.0579 -0.0579)">
     <use xlink:href="#DejaVuSans-53"/>
     <use x="63.623047" xlink:href="#DejaVuSans-51"/>
     <use x="127.246094" xlink:href="#DejaVuSans-40"/>
     <use x="166.259766" xlink:href="#DejaVuSans-50"/>
     <use x="229.882812" xlink:href="#DejaVuSans-41"/>
    </g>
   </g>
   <g id="text_49">
    <!-- 71(3) -->
    <g transform="translate(331.633909 485.422579)scale(0.0579 -0.0579)">
     <use xlink:href="#DejaVuSans-55"/>
     <use x="63.623047" xlink:href="#DejaVuSans-49"/>
     <use x="127.246094" xlink:href="#DejaVuSans-40"/>
     <use x="166.259766" xlink:href="#DejaVuSans-51"/>
     <use x="229.882812" xlink:href="#DejaVuSans-41"/>
    </g>
   </g>
   <g id="text_50">
    <!-- 49(3) -->
    <g transform="translate(315.473319 484.961906)scale(0.0579 -0.0579)">
     <use xlink:href="#DejaVuSans-52"/>
     <use x="63.623047" xlink:href="#DejaVuSans-57"/>
     <use x="127.246094" xlink:href="#DejaVuSans-40"/>
     <use x="166.259766" xlink:href="#DejaVuSans-51"/>
     <use x="229.882812" xlink:href="#DejaVuSans-41"/>
    </g>
   </g>
   <g id="text_51">
    <!-- 41(4) -->
    <g transform="translate(299.312729 545.719499)scale(0.0579 -0.0579)">
     <use xlink:href="#DejaVuSans-52"/>
     <use x="63.623047" xlink:href="#DejaVuSans-49"/>
     <use x="127.246094" xlink:href="#DejaVuSans-40"/>
     <use x="166.259766" xlink:href="#DejaVuSans-52"/>
     <use x="229.882812" xlink:href="#DejaVuSans-41"/>
    </g>
   </g>
   <g id="text_52">
    <!-- 57(4) -->
    <g transform="translate(283.152139 536.491766)scale(0.0579 -0.0579)">
     <use xlink:href="#DejaVuSans-53"/>
     <use x="63.623047" xlink:href="#DejaVuSans-55"/>
     <use x="127.246094" xlink:href="#DejaVuSans-40"/>
     <use x="166.259766" xlink:href="#DejaVuSans-52"/>
     <use x="229.882812" xlink:href="#DejaVuSans-41"/>
    </g>
   </g>
   <g id="text_53">
    <!-- 9(6) -->
    <g transform="translate(978.057504 515.272286)scale(0.0579 -0.0579)">
     <use xlink:href="#DejaVuSans-57"/>
     <use x="63.623047" xlink:href="#DejaVuSans-40"/>
     <use x="102.636719" xlink:href="#DejaVuSans-54"/>
     <use x="166.259766" xlink:href="#DejaVuSans-41"/>
    </g>
   </g>
   <g id="text_54">
    <!-- 70(4) -->
    <g transform="translate(994.218094 494.922293)scale(0.0579 -0.0579)">
     <use xlink:href="#DejaVuSans-55"/>
     <use x="63.623047" xlink:href="#DejaVuSans-48"/>
     <use x="127.246094" xlink:href="#DejaVuSans-40"/>
     <use x="166.259766" xlink:href="#DejaVuSans-52"/>
     <use x="229.882812" xlink:href="#DejaVuSans-41"/>
    </g>
   </g>
   <g id="text_55">
    <!-- 85(5) -->
    <g transform="translate(266.991549 459.42414)scale(0.0579 -0.0579)">
     <use xlink:href="#DejaVuSans-56"/>
     <use x="63.623047" xlink:href="#DejaVuSans-53"/>
     <use x="127.246094" xlink:href="#DejaVuSans-40"/>
     <use x="166.259766" xlink:href="#DejaVuSans-53"/>
     <use x="229.882812" xlink:href="#DejaVuSans-41"/>
    </g>
   </g>
   <g id="text_56">
    <!-- 83(2) -->
    <g transform="translate(250.830959 556.075185)scale(0.0579 -0.0579)">
     <use xlink:href="#DejaVuSans-56"/>
     <use x="63.623047" xlink:href="#DejaVuSans-51"/>
     <use x="127.246094" xlink:href="#DejaVuSans-40"/>
     <use x="166.259766" xlink:href="#DejaVuSans-50"/>
     <use x="229.882812" xlink:href="#DejaVuSans-41"/>
    </g>
   </g>
   <g id="text_57">
    <!-- 12(3) -->
    <g transform="translate(234.67037 547.993573)scale(0.0579 -0.0579)">
     <use xlink:href="#DejaVuSans-49"/>
     <use x="63.623047" xlink:href="#DejaVuSans-50"/>
     <use x="127.246094" xlink:href="#DejaVuSans-40"/>
     <use x="166.259766" xlink:href="#DejaVuSans-51"/>
     <use x="229.882812" xlink:href="#DejaVuSans-41"/>
    </g>
   </g>
   <g id="text_58">
    <!-- 67(4) -->
    <g transform="translate(218.50978 563.349025)scale(0.0579 -0.0579)">
     <use xlink:href="#DejaVuSans-54"/>
     <use x="63.623047" xlink:href="#DejaVuSans-55"/>
     <use x="127.246094" xlink:href="#DejaVuSans-40"/>
     <use x="166.259766" xlink:href="#DejaVuSans-52"/>
     <use x="229.882812" xlink:href="#DejaVuSans-41"/>
    </g>
   </g>
   <g id="text_59">
    <!-- 48(2) -->
    <g transform="translate(202.34919 517.306411)scale(0.0579 -0.0579)">
     <use xlink:href="#DejaVuSans-52"/>
     <use x="63.623047" xlink:href="#DejaVuSans-56"/>
     <use x="127.246094" xlink:href="#DejaVuSans-40"/>
     <use x="166.259766" xlink:href="#DejaVuSans-50"/>
     <use x="229.882812" xlink:href="#DejaVuSans-41"/>
    </g>
   </g>
   <g id="text_60">
    <!-- 0(2) -->
    <g transform="translate(186.1886 494.337641)scale(0.0579 -0.0579)">
     <use xlink:href="#DejaVuSans-48"/>
     <use x="63.623047" xlink:href="#DejaVuSans-40"/>
     <use x="102.636719" xlink:href="#DejaVuSans-50"/>
     <use x="166.259766" xlink:href="#DejaVuSans-41"/>
    </g>
   </g>
  </g>
 </g>
 <defs>
  <clipPath id="pf28105ed5e">
   <rect height="498.96" width="892.8" x="144" y="77.76"/>
  </clipPath>
 </defs>
</svg>
